HIERARCHY
ROOT hip
{
  OFFSET 0 0 0
  CHANNELS 6 Xposition Yposition Zposition Zrotation Yrotation Xrotation
  JOINT abdomen
  {
    OFFSET 0 20.6881 -0.73152
    CHANNELS 3 Zrotation Xrotation Yrotation
    JOINT chest
    {
      OFFSET 0 11.7043 -0.48768
      CHANNELS 3 Zrotation Xrotation Yrotation
      JOINT neck
      {
        OFFSET 0 22.1894 -2.19456
        CHANNELS 3 Zrotation Xrotation Yrotation
        JOINT head
        {
          OFFSET -0.24384 7.07133 1.2192
          CHANNELS 3 Zrotation Xrotation Yrotation
          JOINT leftEye
          {
            OFFSET 4.14528 8.04674 8.04672
            CHANNELS 3 Zrotation Xrotation Yrotation
            End Site
            {
              OFFSET 1 0 0
            }
          }
          JOINT rightEye
          {
            OFFSET -3.6576 8.04674 8.04672
            CHANNELS 3 Zrotation Xrotation Yrotation
            End Site
            {
              OFFSET 1 0 0
            }
          }
        }
      }
      JOINT rCollar
      {
        OFFSET -2.68224 19.2634 -4.8768
        CHANNELS 3 Zrotation Xrotation Yrotation
        JOINT rShldr
        {
          OFFSET -8.77824 -1.95073 1.46304
          CHANNELS 3 Zrotation Xrotation Yrotation
          JOINT rForeArm
          {
            OFFSET -28.1742 -1.7115 0.48768
            CHANNELS 3 Zrotation Xrotation Yrotation
            JOINT rHand
            {
              OFFSET -22.5879 0.773209 7.07136
              CHANNELS 3 Zrotation Xrotation Yrotation
              JOINT rThumb1
              {
                OFFSET -1.2192 -0.487915 3.41376
                CHANNELS 3 Zrotation Xrotation Yrotation
                JOINT rThumb2
                {
                  OFFSET -3.37035 -0.52449 3.41376
                  CHANNELS 3 Zrotation Xrotation Yrotation
                  End Site
                  {
                    OFFSET -1.78271 -1.18214 1.43049
                  }
                }
              }
              JOINT rIndex1
              {
                OFFSET -7.75947 0.938293 5.60832
                CHANNELS 3 Zrotation Xrotation Yrotation
                JOINT rIndex2
                {
                  OFFSET -2.54057 -0.884171 1.56538
                  CHANNELS 3 Zrotation Xrotation Yrotation
                  End Site
                  {
                    OFFSET -1.62519 -0.234802 1.16502
                  }
                }
              }
              JOINT rMid1
              {
                OFFSET -8.24714 1.18213 3.41376
                CHANNELS 3 Zrotation Xrotation Yrotation
                JOINT rMid2
                {
                  OFFSET -3.10165 -0.590103 1.0647
                  CHANNELS 3 Zrotation Xrotation Yrotation
                  End Site
                  {
                    OFFSET -2.48547 -0.328903 0.83742
                  }
                }
              }
              JOINT rRing1
              {
                OFFSET -8.82822 0.546677 1.51678
                CHANNELS 3 Zrotation Xrotation Yrotation
                JOINT rRing2
                {
                  OFFSET -2.60934 -0.819778 -0.0198488
                  CHANNELS 3 Zrotation Xrotation Yrotation
                  End Site
                  {
                    OFFSET -2.33842 -0.294052 0.168128
                  }
                }
              }
              JOINT rPinky1
              {
                OFFSET -8.27202 -0.0477905 -0.4584
                CHANNELS 3 Zrotation Xrotation Yrotation
                JOINT rPinky2
                {
                  OFFSET -1.82734 -0.647385 -0.700984
                  CHANNELS 3 Zrotation Xrotation Yrotation
                  End Site
                  {
                    OFFSET -1.69225 -0.51767 -0.607171
                  }
                }
              }
            }
          }
        }
      }
      JOINT lCollar
      {
        OFFSET 2.68224 19.2634 -4.8768
        CHANNELS 3 Zrotation Xrotation Yrotation
        JOINT lShldr
        {
          OFFSET 8.77824 -1.95073 1.46304
          CHANNELS 3 Zrotation Xrotation Yrotation
          JOINT lForeArm
          {
            OFFSET 28.1742 -1.7115 0.48768
            CHANNELS 3 Zrotation Xrotation Yrotation
            JOINT lHand
            {
              OFFSET 22.5879 0.773209 7.07136
              CHANNELS 3 Zrotation Xrotation Yrotation
              JOINT lThumb1
              {
                OFFSET 1.2192 -0.487915 3.41376
                CHANNELS 3 Zrotation Xrotation Yrotation
                JOINT lThumb2
                {
                  OFFSET 3.37035 -0.52449 3.41376
                  CHANNELS 3 Zrotation Xrotation Yrotation
                  End Site
                  {
                    OFFSET 1.78271 -1.18214 1.43049
                  }
                }
              }
              JOINT lIndex1
              {
                OFFSET 7.75947 0.938293 5.60832
                CHANNELS 3 Zrotation Xrotation Yrotation
                JOINT lIndex2
                {
                  OFFSET 2.54057 -0.884171 1.56538
                  CHANNELS 3 Zrotation Xrotation Yrotation
                  End Site
                  {
                    OFFSET 1.62519 -0.234802 1.16502
                  }
                }
              }
              JOINT lMid1
              {
                OFFSET 8.24714 1.18213 3.41376
                CHANNELS 3 Zrotation Xrotation Yrotation
                JOINT lMid2
                {
                  OFFSET 3.10165 -0.590103 1.0647
                  CHANNELS 3 Zrotation Xrotation Yrotation
                  End Site
                  {
                    OFFSET 2.48547 -0.328903 0.83742
                  }
                }
              }
              JOINT lRing1
              {
                OFFSET 8.82822 0.546677 1.51678
                CHANNELS 3 Zrotation Xrotation Yrotation
                JOINT lRing2
                {
                  OFFSET 2.60934 -0.819778 -0.0198488
                  CHANNELS 3 Zrotation Xrotation Yrotation
                  End Site
                  {
                    OFFSET 2.33842 -0.294052 0.168128
                  }
                }
              }
              JOINT lPinky1
              {
                OFFSET 8.27202 -0.0477905 -0.4584
                CHANNELS 3 Zrotation Xrotation Yrotation
                JOINT lPinky2
                {
                  OFFSET 1.82734 -0.647385 -0.700984
                  CHANNELS 3 Zrotation Xrotation Yrotation
                  End Site
                  {
                    OFFSET 1.69225 -0.51767 -0.607171
                  }
                }
              }
            }
          }
        }
      }
    }
  }
  JOINT rButtock
  {
    OFFSET -8.77824 4.35084 1.2192
    CHANNELS 3 Zrotation Xrotation Yrotation
    JOINT rThigh
    {
      OFFSET 0 -1.70687 -2.19456
      CHANNELS 3 Zrotation Xrotation Yrotation
      JOINT rShin
      {
        OFFSET 0 -36.8199 0.73152
        CHANNELS 3 Zrotation Xrotation Yrotation
        JOINT rFoot
        {
          OFFSET 0.73152 -45.1104 -5.12064
          CHANNELS 3 Zrotation Xrotation Yrotation
          End Site
          {
            OFFSET -1.1221 -3.69964 12.103
          }
        }
      }
    }
  }
  JOINT lButtock
  {
    OFFSET 8.77824 4.35084 1.2192
    CHANNELS 3 Zrotation Xrotation Yrotation
    JOINT lThigh
    {
      OFFSET 0 -1.70687 -2.19456
      CHANNELS 3 Zrotation Xrotation Yrotation
      JOINT lShin
      {
        OFFSET 0 -36.8199 0.73152
        CHANNELS 3 Zrotation Xrotation Yrotation
        JOINT lFoot
        {
          OFFSET -0.73152 -45.1104 -5.12064
          CHANNELS 3 Zrotation Xrotation Yrotation
          End Site
          {
            OFFSET 1.1221 -3.69964 12.103
          }
        }
      }
    }
  }
}
MOTION
Frames:	6
Frame Time:	0.00833333
3.1082 84.3996 -73.1355 0.0 0.0 0.0 -0.991224 -0.00434166 -0.0274291 -0.273429 -0.00447547 -0.0473707 -3.85503e-15 -7.95139e-16 -1.2424e-16 -1.13059e-14 3.18055e-15 -3.72721e-16 -0.0 0.0 0.0 -0.0 0.0 0.0 -1.79051e-15 -1.12593e-17 4.96962e-17 -3.66106e-14 -3.16813e-16 -3.97569e-16 -6.71594e-13 1.962e-13 -4.13472e-14 -7.70169e-12 -2.32354e-13 -2.57625e-13 -1.81617e-11 -7.88983e-14 -6.36111e-13 -3.13766e-11 -1.33583e-13 -1.12592e-12 -1.8153e-11 -7.67309e-14 -6.52014e-13 7.73091 5.47488 0.417314 -1.81616e-11 -7.86193e-14 -6.45653e-13 2.90554 0.965183 0.102902 -1.81541e-11 -7.84206e-14 -6.48038e-13 10.2786 0.731801 0.0259123 -1.81618e-11 -7.7526e-14 -6.42472e-13 2.22167 -0.733487 -0.20892 -1.78774e-15 -9.70628e-18 -1.49089e-16 -4.13348e-14 -2.23633e-16 -2.38542e-15 -6.73234e-13 -2.0932e-13 3.18055e-15 -7.69494e-12 1.65463e-13 -3.05333e-13 -1.81502e-11 -9.55267e-14 -6.52014e-13 -3.13376e-11 -1.65389e-13 -1.10922e-12 -1.8157e-11 -9.10434e-14 -6.42472e-13 -7.73091 5.47488 -0.417314 -1.8151e-11 -9.5516e-14 -6.52014e-13 -2.90554 0.965183 -0.102902 -1.81616e-11 -9.52179e-14 -6.48038e-13 -10.2786 0.731801 -0.0259123 -1.81514e-11 -9.54166e-14 -6.48833e-13 -2.22167 -0.733487 0.20892 -2.03217e-16 0.0 -3.88251e-19 -0.253791 -1.9193 -0.0128548 -0.00928921 -2.07855 -0.0767334 -0.497362 3.99655 0.138109 2.03217e-16 0.0 3.88251e-19 -1.25489 -5.46676 0.109737 -9.49596e-05 4.34722 -0.0243729 0.511615 1.11837 -0.0811213
2.57643 83.031 -74.6294 -1.6012 -1.4539 6.2855 -0.629436 0.38483 -0.225186 0.136521 1.16095 -0.114717 -0.773023 0.582056 -0.096069 1.03651 1.94999 -0.075602 -0.0 0.0 0.0 -0.0 0.0 0.0 -4.6013e-15 -6.25888e-14 -9.35414e-15 21.573 2.16849 2.58706 -3.19312 -1.29323 5.14546 0.189858 9.69159 1.29275 -5.08624e-10 -3.48026e-11 6.0879e-10 -8.60612e-10 -7.72364e-11 1.06401e-09 -5.08614e-10 -3.48016e-11 6.08773e-10 7.73091 5.47488 0.417314 -5.08625e-10 -3.48014e-11 6.08782e-10 2.90554 0.965183 0.102902 -5.08617e-10 -3.48013e-11 6.08781e-10 10.2786 0.731801 0.0259123 -5.08626e-10 -3.48008e-11 6.08787e-10 2.22167 -0.733487 -0.20892 -4.62698e-15 -6.25864e-14 -9.55292e-15 -21.4154 5.90563 -3.64706 2.44809 -0.900999 -4.02258 -0.000505631 0.49882 -0.0700949 2.06444e-10 -3.81858e-10 -8.14978e-10 3.53897e-10 -6.62015e-10 -1.40897e-09 2.06435e-10 -3.81854e-10 -8.1497e-10 -7.73091 5.47488 -0.417314 2.06442e-10 -3.81857e-10 -8.14978e-10 -2.90554 0.965183 -0.102902 2.06432e-10 -3.81857e-10 -8.14975e-10 -10.2786 0.731801 -0.0259123 2.06443e-10 -3.81857e-10 -8.14978e-10 -2.22167 -0.733487 0.20892 -2.03217e-16 0.0 -3.88251e-19 -0.86891 -5.81962 -0.596348 -0.0103293 3.76962 0.0183788 -0.533924 0.593192 -0.749409 2.03217e-16 0.0 3.88251e-19 -0.16606 -8.79478 2.25545 -0.0117682 9.1267 -0.103657 0.596941 -1.44631 1.31064
2.57415 83.0301 -74.6339 -1.6108 -1.4607 6.3059 -0.244135 0.79749 -0.434077 0.572948 2.39252 -0.185946 -1.58714 1.19584 -0.19623 2.13429 4.01827 -0.153202 -0.0 0.0 0.0 -0.0 0.0 0.0 -8.03708e-15 -1.31105e-13 -1.98008e-14 44.1653 4.45001 5.33359 -6.31846 -2.62632 10.5953 -0.112318 19.9164 2.78785 -1.03798e-09 -7.81269e-11 1.27728e-09 -1.75532e-09 -1.70707e-10 2.23212e-09 -1.03797e-09 -7.81272e-11 1.27726e-09 7.73091 5.47488 0.417314 -1.03798e-09 -7.81247e-11 1.27728e-09 2.90554 0.965183 0.102902 -1.03797e-09 -7.81248e-11 1.27728e-09 10.2786 0.731801 0.0259123 -1.03798e-09 -7.81247e-11 1.27728e-09 2.22167 -0.733487 -0.20892 -8.08988e-15 -1.31102e-13 -1.99996e-14 -43.2217 12.0682 -7.63253 4.89965 -1.83909 -8.27949 0.000287531 1.02676 -0.1443 4.65566e-10 -7.8457e-10 -1.69558e-09 7.9859e-10 -1.36023e-09 -2.93145e-09 4.65556e-10 -7.84568e-10 -1.69557e-09 -7.73091 5.47488 -0.417314 4.65562e-10 -7.8457e-10 -1.69558e-09 -2.90554 0.965183 -0.102902 4.65552e-10 -7.8457e-10 -1.69558e-09 -10.2786 0.731801 -0.0259123 4.65566e-10 -7.8457e-10 -1.69558e-09 -2.22167 -0.733487 0.20892 -2.03217e-16 0.0 -3.88251e-19 -1.6069 -9.94197 -1.22436 -0.0327181 9.95243 0.120605 -0.687332 -3.00281 -1.69016 2.03217e-16 0.0 3.88251e-19 1.26172 -12.2894 4.57459 -0.00936084 14.1799 -0.190658 0.822865 -4.15323 2.78846
2.56957 83.0304 -74.6348 -1.6384 -1.4428 6.3082 0.102202 1.16312 -0.620812 0.964657 3.49176 -0.249803 -2.31321 1.74615 -0.288326 3.12505 5.84994 -0.227861 -0.0 0.0 0.0 -0.0 0.0 0.0 -1.02229e-14 -1.87744e-13 -2.81618e-14 64.1302 6.45227 7.80537 -8.89063 -3.75474 15.4665 -0.901111 29.0111 4.3724 -1.48955e-09 -1.0425e-10 1.82764e-09 -2.51908e-09 -2.31442e-10 3.19427e-09 -1.48954e-09 -1.04251e-10 1.82762e-09 7.73091 5.47488 0.417314 -1.48955e-09 -1.04247e-10 1.82764e-09 2.90554 0.965183 0.102902 -1.48954e-09 -1.04247e-10 1.82764e-09 10.2786 0.731801 0.0259123 -1.48956e-09 -1.04247e-10 1.82765e-09 2.22167 -0.733487 -0.20892 -1.03055e-14 -1.8774e-13 -2.83606e-14 -61.9145 17.423 -11.4132 6.96751 -2.64976 -12.0793 0.00214566 1.49645 -0.210349 6.55632e-10 -1.14538e-09 -2.44363e-09 1.12437e-09 -1.98571e-09 -4.22469e-09 6.5562e-10 -1.14538e-09 -2.44362e-09 -7.73091 5.47488 -0.417314 6.55627e-10 -1.14538e-09 -2.44363e-09 -2.90554 0.965183 -0.102902 6.55618e-10 -1.14538e-09 -2.44363e-09 -10.2786 0.731801 -0.0259123 6.55633e-10 -1.14538e-09 -2.44364e-09 -2.22167 -0.733487 0.20892 -2.03217e-16 0.0 -3.88251e-19 -2.34358 -13.6147 -1.80486 -0.072007 15.4659 0.216212 -0.924238 -6.20734 -2.53855 2.03217e-16 0.0 3.88251e-19 2.78335 -15.37 6.70928 0.00665525 18.6855 -0.272807 1.14297 -6.55997 4.11991
2.57342 83.0302 -74.6365 -1.6193 -1.4489 6.314 0.34541 1.41121 -0.752049 1.23878 4.2602 -0.294872 -2.82317 2.13776 -0.360151 3.83807 7.09011 -0.294232 -0.0 0.0 0.0 -0.0 0.0 0.0 -9.28367e-15 -2.1469e-13 -3.13086e-14 77.944 7.80717 9.54786 -10.5634 -4.49084 18.8623 -1.82333 35.3399 5.71934 -1.74666e-09 -8.73698e-11 2.08267e-09 -2.95546e-09 -2.1034e-10 3.6415e-09 -1.74665e-09 -8.7371e-11 2.08265e-09 7.73091 5.47488 0.417314 -1.74667e-09 -8.73662e-11 2.08266e-09 2.90554 0.965183 0.102902 -1.74666e-09 -8.73662e-11 2.08266e-09 10.2786 0.731801 0.0259123 -1.74667e-09 -8.73667e-11 2.08267e-09 2.22167 -0.733487 -0.20892 -9.40273e-15 -2.14686e-13 -3.15074e-14 -74.497 21.038 -14.2322 8.34119 -3.19273 -14.7255 0.00406649 1.8205 -0.255942 6.73059e-10 -1.40144e-09 -2.8603e-09 1.15286e-09 -2.42934e-09 -4.94482e-09 6.73047e-10 -1.40144e-09 -2.8603e-09 -7.73091 5.47488 -0.417314 6.73054e-10 -1.40144e-09 -2.8603e-09 -2.90554 0.965183 -0.102902 6.73045e-10 -1.40144e-09 -2.86031e-09 -10.2786 0.731801 -0.0259123 6.73061e-10 -1.40144e-09 -2.86031e-09 -2.22167 -0.733487 0.20892 -2.03217e-16 0.0 -3.88251e-19 -2.9029 -16.1685 -2.22913 -0.111013 19.306 0.286965 -1.14555 -8.43998 -3.13684 2.03217e-16 0.0 3.88251e-19 3.98794 -17.4865 8.24576 0.0265251 21.8222 -0.333598 1.43305 -8.23183 5.05901
2.57331 83.0302 -74.638 -1.6212 -1.4469 6.3199 0.441491 1.49437 -0.805522 1.34566 4.56521 -0.313468 -3.03342 2.30912 -0.404221 4.1598 7.4969 -0.349479 -0.0 0.0 0.0 -0.0 0.0 0.0 -1.81924e-15 -1.99246e-13 -2.77518e-14 83.3322 8.28821 10.2403 -11.1822 -4.7593 20.1724 -2.29437 37.8507 6.33274 -1.73999e-09 1.01549e-11 1.89505e-09 -2.94887e-09 -3.90257e-11 3.31778e-09 -1.73998e-09 1.01558e-11 1.89503e-09 7.73091 5.47488 0.417314 -1.73999e-09 1.0159e-11 1.89505e-09 2.90554 0.965183 0.102902 -1.73998e-09 1.01597e-11 1.89505e-09 10.2786 0.731801 0.0259123 -1.73999e-09 1.01591e-11 1.89505e-09 2.22167 -0.733487 -0.20892 -1.99354e-15 -1.99242e-13 -2.79494e-14 -79.325 22.4235 -15.3848 8.8574 -3.3958 -15.7483 0.00490818 1.93743 -0.2724 3.99452e-10 -1.53924e-09 -2.83295e-09 6.79749e-10 -2.66747e-09 -4.89685e-09 3.99441e-10 -1.53924e-09 -2.83294e-09 -7.73091 5.47488 -0.417314 3.99447e-10 -1.53924e-09 -2.83295e-09 -2.90554 0.965183 -0.102902 3.99439e-10 -1.53924e-09 -2.83295e-09 -10.2786 0.731801 -0.0259123 3.99453e-10 -1.53924e-09 -2.83296e-09 -2.22167 -0.733487 0.20892 -2.03217e-16 0.0 -3.88251e-19 -3.13288 -17.1601 -2.40952 -0.129112 20.8039 0.315871 -1.24346 -9.31733 -3.36669 2.03217e-16 0.0 3.88251e-19 4.49404 -18.3003 8.86175 0.0372139 23.0426 -0.358309 1.56175 -8.88628 5.42891
